<svg xmlns="http://www.w3.org/2000/svg" version="1.0" width="300.000000pt" height="278.000000pt" viewBox="0 0 300.000000 278.000000" preserveAspectRatio="xMidYMid meet"><script xmlns="" src="chrome-extension://mfidniedemcgceagapgdekdbmanojomk/js/elephant.js"/>
<metadata>
placeholder
</metadata>
<g transform="translate(0.000000,278.000000) scale(0.100000,-0.100000)" fill="#000000" stroke="none">
<path d="M884 2680 c0 -58 1 -81 3 -52 2 28 2 76 0 105 -2 28 -3 5 -3 -53z"/>
<path d="M1033 2705 c0 -44 2 -61 4 -37 2 23 2 59 0 80 -2 20 -4 1 -4 -43z"/>
<path d="M1184 2580 c0 -113 2 -159 3 -102 2 56 2 148 0 205 -1 56 -3 10 -3 -103z"/>
<path d="M1482 2573 l-2 -212 -42 -4 -43 -4 42 -1 42 -2 3 -87 3 -88 5 95 c3 52 3 190 0 305 l-6 210 -2 -212z"/>
<path d="M1782 2568 l-2 -218 80 0 80 0 -2 103 -2 102 -3 -97 -4 -98 -69 0 -70 0 -3 213 -2 212 -3 -217z"/>
<path d="M1333 2620 c0 -47 2 -66 4 -42 2 23 2 61 0 85 -2 23 -4 4 -4 -43z"/>
<path d="M583 2610 c0 -36 2 -50 4 -32 2 17 2 47 0 65 -2 17 -4 3 -4 -33z"/>
<path d="M1633 2605 c0 -38 2 -53 4 -32 2 20 2 52 0 70 -2 17 -4 1 -4 -38z"/>
<path d="M1933 2615 c0 -33 2 -45 4 -27 2 18 2 45 0 60 -2 15 -4 0 -4 -33z"/>
<path d="M2233 2610 c0 -36 2 -50 4 -32 2 17 2 47 0 65 -2 17 -4 3 -4 -33z"/>
<path d="M714 2556 c-11 -13 -81 -92 -156 -175 -135 -148 -138 -152 -138 -197 0 -38 -3 -45 -17 -42 -12 2 -18 13 -18 33 0 21 -5 30 -16 30 -9 0 -78 -67 -154 -150 l-137 -150 7 -775 c5 -621 9 -779 20 -796 11 -18 27 -22 106 -27 110 -8 103 -13 178 112 l51 84 0 -115 c0 -155 -5 -150 182 -152 l143 -1 24 48 c22 44 25 47 41 32 14 -13 40 -15 146 -13 l128 3 106 257 c58 142 107 258 110 258 3 0 34 -147 70 -326 47 -234 70 -330 82 -341 16 -14 28 -14 130 2 62 9 118 20 125 24 7 3 44 49 83 101 39 52 74 95 78 95 64 -3 101 -21 159 -76 114 -109 267 -156 434 -131 119 17 206 60 279 138 95 102 140 218 160 410 15 137 6 200 -34 240 -57 57 -207 99 -401 112 l-110 7 33 32 c43 42 95 52 137 28 17 -11 63 -21 110 -26 44 -4 92 -10 108 -14 44 -12 34 16 -27 74 -61 57 -89 63 -154 35 -20 -9 -55 -20 -77 -24 l-40 -8 50 45 c70 62 143 103 186 103 62 0 95 19 158 90 86 96 83 107 -19 66 -32 -13 -73 -27 -89 -31 -35 -7 -91 -56 -91 -78 0 -8 -28 -31 -62 -53 -35 -21 -90 -63 -122 -93 -33 -31 -56 -47 -52 -37 11 32 24 97 31 162 l7 62 40 -44 c22 -24 47 -44 54 -44 19 0 29 48 16 82 -9 25 -8 28 10 28 31 0 88 48 105 87 9 23 12 49 7 79 -5 37 -14 50 -61 89 -61 50 -61 50 -98 33 -19 -9 -28 -9 -37 0 -19 19 -63 14 -83 -8 -10 -11 -28 -20 -40 -20 -66 0 -75 -121 -13 -187 l21 -22 -27 -7 c-48 -12 -96 -90 -66 -109 6 -3 22 2 38 13 15 10 45 22 68 25 l41 7 -9 -53 c-5 -28 -13 -77 -19 -107 -5 -30 -22 -83 -39 -117 -25 -55 -32 -63 -57 -63 -15 0 -39 -3 -52 -7 -22 -6 -23 -4 -17 22 4 16 15 40 25 54 34 49 39 108 6 81 -10 -8 -14 38 -20 239 -4 137 -4 254 0 260 4 8 15 6 35 -4 42 -22 59 -19 131 19 35 18 78 37 95 40 46 10 77 48 72 86 -4 26 -1 34 18 42 36 17 56 56 59 112 2 28 6 72 10 97 13 80 -28 128 -138 165 -26 9 -52 24 -57 34 -12 22 -81 51 -106 44 -13 -3 -24 4 -36 26 -21 36 -50 39 -72 6 -14 -22 -20 -24 -69 -19 -47 5 -56 2 -84 -21 -17 -14 -45 -29 -62 -32 -17 -4 -34 -11 -37 -15 -3 -5 -14 -9 -25 -9 -31 0 -76 -51 -89 -101 -6 -24 -23 -64 -37 -88 -18 -32 -24 -52 -20 -77 4 -26 1 -36 -17 -47 -22 -15 -22 -14 -40 84 -21 117 -34 134 -75 95 -21 -20 -55 -34 -120 -51 l-92 -23 -9 24 c-5 13 -13 24 -18 24 -4 0 -34 -23 -65 -51 l-58 -51 1 153 c1 85 1 160 0 167 0 19 -36 14 -51 -7 -12 -16 -31 -20 -106 -24 -88 -4 -92 -3 -95 17 -2 14 -10 20 -23 19 -19 -2 -20 4 -20 110 0 98 -2 112 -17 115 -10 2 -28 -8 -40 -21 -21 -23 -33 -26 -125 -31 l-102 -7 -3 28 c-4 36 -30 41 -54 9z m-103 -202 c-72 -86 -131 -163 -131 -170 0 -17 67 -26 168 -22 l83 3 -8 -100 c-4 -55 -8 -484 -8 -954 l0 -853 -115 7 c-63 4 -118 10 -121 13 -4 4 -9 252 -13 552 -3 300 -9 734 -12 965 l-7 420 144 159 c79 87 145 153 147 147 2 -6 -55 -81 -127 -167z m298 -171 l-122 -135 11 -821 11 -822 -27 -70 -27 -70 -8 210 c-9 229 0 1514 11 1635 l7 75 130 171 130 172 3 -105 3 -105 -122 -135z m61 318 c0 -6 -5 -13 -10 -16 -6 -4 -60 -71 -121 -151 l-110 -144 -105 0 c-57 0 -104 2 -104 5 0 2 54 69 120 147 l120 143 97 11 c54 6 101 12 106 13 4 0 7 -3 7 -8z m1365 -173 c13 -29 23 -54 21 -55 -2 -2 -15 1 -30 7 -64 24 -119 3 -139 -52 -5 -13 -17 -18 -44 -18 -22 0 -57 -11 -82 -25 -24 -14 -46 -23 -48 -21 -3 2 -7 23 -10 45 -7 50 6 67 61 82 22 6 51 20 64 32 19 17 33 21 82 19 50 -2 61 1 72 18 19 30 26 25 53 -32z m95 -13 c16 -8 39 -33 51 -55 13 -23 38 -50 57 -62 55 -34 65 -56 47 -109 -9 -24 -24 -55 -34 -68 -18 -23 -18 -23 -13 33 3 38 -1 70 -12 99 -19 51 -71 105 -105 110 -39 6 -71 67 -36 67 9 0 29 -7 45 -15z m-1367 -28 c-10 -12 -62 -75 -117 -140 -55 -66 -96 -123 -93 -131 6 -16 60 -26 146 -26 l64 0 -7 -92 c-3 -50 -6 -423 -6 -830 l0 -738 -99 0 c-55 0 -102 4 -105 9 -3 4 -11 389 -17 854 l-11 846 123 135 c67 75 126 136 131 136 5 0 1 -10 -9 -23z m257 -133 l-5 -151 -93 -77 c-51 -43 -95 -83 -98 -90 -2 -6 38 -223 91 -481 l95 -469 -111 -271 c-61 -148 -114 -272 -116 -275 -3 -3 -3 369 -1 825 l3 830 119 158 c65 87 119 156 120 155 1 -2 -1 -71 -4 -154z m-153 1 l-102 -135 -70 1 c-115 1 -115 -1 -4 134 108 131 107 130 226 134 l53 1 -103 -135z m1153 100 c23 -8 58 -15 77 -15 38 0 72 -30 94 -82 13 -31 12 -32 -41 -79 -45 -40 -56 -45 -65 -33 -6 9 -15 14 -20 12 -6 -2 -20 7 -32 20 -27 26 -41 28 -49 7 -4 -10 -13 -13 -26 -9 -12 4 -24 1 -29 -7 -16 -24 -38 17 -33 59 12 86 15 100 35 120 24 26 33 27 89 7z m-344 -13 c-3 -9 -2 -33 4 -51 8 -30 7 -37 -15 -57 -25 -23 -25 -24 -9 -61 25 -59 37 -94 33 -98 -2 -2 -28 2 -57 7 -74 15 -83 40 -43 112 16 28 31 67 35 87 3 19 15 45 27 57 24 27 32 28 25 4z m634 -31 c39 -28 54 -66 41 -103 -6 -17 -11 -54 -11 -83 0 -37 -6 -60 -20 -78 -29 -36 -170 -86 -170 -60 0 3 28 31 61 62 65 58 109 133 109 184 0 28 -17 49 -87 105 l-28 23 40 -16 c22 -9 51 -24 65 -34z m-437 -74 c-2 -27 3 -60 11 -75 12 -24 12 -30 0 -47 -14 -18 -15 -18 -51 2 -21 11 -64 28 -95 37 -32 9 -58 18 -58 20 0 3 -3 11 -6 20 -4 11 8 22 43 39 26 13 62 32 78 41 17 9 41 15 55 14 23 -3 25 -6 23 -51z m-1930 -127 c-65 -72 -118 -137 -118 -143 0 -7 27 -15 66 -20 l66 -9 6 -76 c3 -42 4 -80 1 -84 -6 -9 -115 -11 -138 -2 -13 5 -16 25 -16 113 l0 106 122 134 c67 73 124 129 126 123 2 -6 -50 -70 -115 -142z m1618 -447 c106 -499 117 -559 102 -568 -60 -37 -82 -67 -88 -119 l-7 -54 -43 -4 c-155 -18 -195 -232 -67 -358 26 -25 57 -52 70 -60 l23 -15 -55 -74 c-32 -43 -57 -68 -59 -60 -3 8 -23 111 -45 229 -23 118 -91 472 -152 786 l-111 570 113 111 c133 130 192 183 197 178 2 -2 56 -255 122 -562z m-1441 519 c0 -32 -10 -49 -77 -125 -78 -89 -84 -92 -146 -78 -27 6 -26 7 79 124 116 128 144 144 144 79z m1050 -2 c0 -5 -63 -62 -140 -127 -84 -70 -139 -124 -138 -133 4 -20 67 -25 141 -10 33 6 61 9 64 6 5 -5 29 -127 198 -998 45 -232 55 -300 46 -311 -18 -22 -90 -38 -156 -35 l-60 3 -137 675 c-106 521 -134 678 -125 687 21 20 300 253 304 253 2 0 3 -4 3 -10z m50 -110 l-125 -119 -67 -11 c-37 -7 -74 -10 -81 -8 -9 2 39 48 111 108 115 96 133 107 202 127 41 12 77 22 80 22 3 0 -51 -53 -120 -119z m994 83 c-8 -45 -36 -104 -58 -122 -13 -11 -16 -11 -16 2 0 8 -7 20 -15 27 -8 7 -15 19 -15 28 0 15 87 102 103 102 4 0 5 -17 1 -37z m-392 -59 c26 -13 65 -24 87 -24 22 0 43 -5 47 -11 4 -6 31 -9 68 -8 33 2 67 0 74 -4 20 -13 15 -65 -9 -77 -92 -50 -337 20 -369 104 -24 66 -24 66 17 54 21 -6 59 -21 85 -34z m216 30 c34 -24 26 -34 -27 -34 -54 0 -88 23 -60 41 22 14 62 11 87 -7z m-1905 -1025 l5 -445 -58 -92 -58 -92 -6 217 c-3 120 -8 432 -11 693 -3 261 -8 496 -11 522 -6 47 -5 48 58 118 l63 71 6 -273 c4 -150 9 -474 12 -719z m1498 957 c31 -7 76 -27 101 -45 50 -36 196 -90 243 -91 l30 -1 -50 -44 c-27 -25 -56 -45 -62 -45 -28 0 -169 53 -189 71 -12 11 -26 38 -33 59 -11 36 -15 40 -46 40 -44 0 -81 14 -89 35 -14 37 7 42 95 21z m-101 -44 c0 -13 47 -32 80 -32 25 0 31 -5 40 -37 21 -68 53 -95 129 -107 24 -4 57 -14 73 -22 17 -9 39 -14 49 -11 17 5 19 -1 19 -64 0 -38 -2 -69 -5 -69 -2 0 -20 29 -40 64 -44 80 -61 95 -70 66 -16 -49 5 -102 64 -159 l56 -56 3 -136 c4 -149 -10 -278 -30 -290 -7 -5 -16 -5 -19 -1 -12 13 -38 107 -44 155 -6 41 -15 58 -60 107 -29 31 -56 67 -60 79 -3 11 -13 21 -21 21 -19 0 -19 -67 1 -140 12 -46 23 -63 69 -105 31 -27 62 -67 71 -87 l15 -38 -27 -6 c-16 -3 -47 -12 -70 -19 -41 -13 -43 -13 -48 8 -3 12 -46 212 -95 445 -49 233 -92 427 -95 432 -4 6 -1 10 4 10 6 0 11 -4 11 -8z m728 -70 c-2 -20 -14 -28 -66 -47 -35 -13 -71 -30 -80 -38 -32 -29 -65 -36 -101 -21 l-32 14 32 40 c18 22 40 40 50 40 9 0 27 8 38 18 16 12 41 17 92 18 69 1 70 0 67 -24z m-68 -147 c13 -12 23 -13 48 -4 23 8 36 7 53 -2 l22 -11 -24 -14 c-13 -7 -32 -13 -42 -14 -10 0 -29 -7 -42 -16 -24 -16 -25 -16 -25 9 0 26 -20 40 -45 31 -18 -7 -20 7 -3 24 16 16 38 15 58 -3z m-58 -42 c22 -4 28 -12 33 -44 4 -21 11 -41 16 -45 17 -10 10 -70 -10 -88 -24 -22 -49 -11 -86 38 -36 47 -48 94 -34 129 10 23 16 27 33 22 12 -4 33 -9 48 -12z m-2164 -33 c-3 -23 -8 -25 -57 -28 -76 -4 -101 3 -101 31 0 21 4 22 80 22 80 0 81 0 78 -25z m2392 4 c6 -14 10 -42 10 -63 0 -32 -7 -45 -40 -75 -24 -21 -50 -36 -65 -36 -33 0 -32 11 4 31 25 15 29 24 33 75 3 33 2 64 -3 70 -12 15 -1 24 28 24 16 0 27 -8 33 -26z m-93 -2 c6 -4 10 -27 8 -57 -2 -36 -9 -54 -25 -67 -32 -26 -42 -22 -39 15 1 17 -2 45 -6 60 -6 22 -3 31 11 42 21 16 34 18 51 7z m-2294 -341 c4 -156 7 -369 7 -472 l0 -187 -40 -7 c-22 -4 -57 -4 -78 0 l-39 6 -6 316 c-4 174 -7 386 -7 472 l0 156 78 0 79 0 6 -284z m2135 173 c30 -8 28 -24 -3 -24 -14 0 -41 -7 -60 -14 -44 -19 -46 -2 -2 24 36 22 34 22 65 14z m143 -56 c6 -10 9 -26 7 -35 -2 -13 -11 -8 -40 19 -21 19 -38 40 -38 46 0 18 59 -7 71 -30z m234 -8 c-19 -21 -72 -29 -60 -9 8 12 43 27 64 28 11 1 10 -4 -4 -19z m-706 -136 c14 -31 14 -35 -1 -31 -15 2 -37 36 -38 54 0 20 26 4 39 -23z m591 -89 c12 -14 9 -16 -23 -13 -37 2 -48 12 -24 21 22 9 34 7 47 -8z m-150 -135 c171 -15 307 -57 354 -109 17 -19 18 -33 13 -148 -9 -209 -58 -350 -154 -448 -96 -97 -195 -130 -363 -123 -140 7 -200 30 -286 110 -114 107 -174 277 -174 494 0 92 2 102 23 121 52 48 179 88 322 102 128 12 137 12 265 1z m-640 -280 c0 -34 -4 -42 -24 -50 -14 -5 -32 -20 -41 -34 -32 -49 7 -135 71 -158 28 -10 42 -24 61 -62 l25 -49 -42 7 c-81 13 -161 71 -194 140 -23 49 -21 143 4 184 22 36 68 61 113 62 25 0 27 -3 27 -40z m17 -150 c7 -35 11 -66 8 -68 -2 -2 -18 9 -35 26 -32 32 -40 78 -18 100 21 21 31 8 45 -58z m-1652 -11 c29 8 37 7 42 -5 15 -39 -39 -61 -122 -48 -41 6 -45 9 -45 34 0 27 0 28 44 18 29 -6 57 -6 81 1z m-23 -85 c7 3 25 7 41 10 l27 6 0 -94 0 -94 -77 5 c-43 3 -81 11 -85 17 -4 6 -8 45 -8 87 l0 76 45 -8 c25 -5 51 -7 57 -5z m1443 -70 c0 -33 -4 -41 -30 -53 -34 -17 -173 -28 -185 -15 -4 5 -10 25 -14 44 l-6 35 78 0 c51 1 87 6 107 17 42 22 50 17 50 -28z m34 -144 c8 -45 12 -82 10 -84 -10 -7 -212 -36 -218 -30 -3 3 -13 39 -22 80 l-16 74 66 1 c40 0 84 7 111 19 25 10 48 18 51 19 3 1 11 -35 18 -79z"/>
<path d="M540 1878 c-19 -10 -26 -23 -28 -51 l-3 -37 70 0 71 0 0 34 c0 18 -6 39 -13 45 -23 18 -70 22 -97 9z m64 -24 c33 -13 17 -34 -24 -34 -28 0 -40 4 -40 14 0 22 33 32 64 20z"/>
<path d="M532 1763 c-22 -9 -34 -41 -22 -62 23 -45 141 -32 148 16 6 39 -73 68 -126 46z m95 -40 c3 -7 -7 -15 -22 -19 -30 -8 -79 11 -70 27 9 14 87 7 92 -8z"/>
<path d="M541 1651 c-35 -9 -46 -46 -21 -71 25 -25 101 -28 124 -4 19 19 21 48 4 61 -18 14 -78 22 -107 14z m87 -35 c20 -21 -57 -36 -87 -17 -11 7 -10 11 5 20 17 10 71 8 82 -3z"/>
<path d="M516 1524 c-36 -35 1 -74 70 -74 40 0 74 22 74 48 0 19 -31 42 -56 42 -19 0 -24 -5 -24 -25 0 -22 2 -24 20 -13 21 14 40 4 23 -13 -6 -6 -28 -9 -49 -7 -36 3 -39 5 -36 31 4 31 0 33 -22 11z"/>
<path d="M514 1356 c-18 -48 35 -76 71 -36 19 21 45 27 45 11 0 -6 -5 -13 -11 -17 -7 -4 -8 -9 0 -17 13 -13 41 9 41 32 0 42 -54 55 -85 21 -22 -24 -37 -26 -33 -4 4 22 -20 30 -28 10z"/>
<path d="M510 1255 c0 -12 15 -15 75 -15 60 0 75 3 75 15 0 12 -15 15 -75 15 -60 0 -75 -3 -75 -15z"/>
<path d="M580 1135 c0 -26 15 -35 22 -13 4 12 28 3 28 -12 0 -14 -36 -21 -65 -14 -15 4 -24 12 -22 19 7 17 -9 39 -22 31 -6 -4 -11 -20 -11 -36 0 -25 5 -30 37 -39 58 -16 113 3 113 40 0 25 -27 49 -56 49 -19 0 -24 -5 -24 -25z"/>
<path d="M510 1027 c0 -17 5 -19 40 -14 22 3 40 2 40 -2 0 -5 -18 -16 -40 -26 -65 -29 -52 -45 35 -45 60 0 75 3 75 15 0 11 -12 15 -42 16 l-43 0 43 22 c63 31 52 48 -35 50 -66 3 -73 1 -73 -16z"/>
<path d="M510 895 c0 -12 15 -15 75 -15 60 0 75 3 75 15 0 12 -15 15 -75 15 -60 0 -75 -3 -75 -15z"/>
<path d="M536 847 c-10 -7 -18 -28 -19 -47 l-2 -35 70 0 70 1 3 31 c2 23 -3 35 -20 47 -27 19 -78 21 -102 3z m92 -37 c2 -11 -7 -15 -35 -14 -56 2 -57 3 -43 20 17 19 74 15 78 -6z"/>
<path d="M580 731 c-89 -23 -91 -43 -6 -65 36 -9 70 -16 76 -16 14 0 13 27 -2 33 -10 3 -10 9 0 26 14 23 16 41 5 40 -5 0 -37 -9 -73 -18z"/>
<path d="M514 626 c-3 -8 -4 -25 -2 -38 3 -21 8 -23 76 -26 l72 -3 0 36 c0 24 -4 35 -15 35 -8 0 -15 -9 -15 -20 0 -11 -7 -20 -15 -20 -8 0 -15 9 -15 20 0 11 -5 20 -11 20 -6 0 -13 -9 -16 -20 -7 -26 -33 -26 -33 -1 0 25 -18 37 -26 17z"/>
<path d="M520 514 c-20 -52 -12 -59 68 -59 41 0 72 4 72 10 0 6 -11 11 -25 13 -32 4 -32 18 0 26 14 4 25 13 25 22 0 11 -6 14 -22 8 -25 -8 -26 -8 -75 2 -29 6 -34 3 -43 -22z m60 -19 c0 -8 -9 -15 -20 -15 -20 0 -26 11 -13 23 12 13 33 7 33 -8z"/>
<path d="M883 1785 c0 -33 2 -45 4 -27 2 18 2 45 0 60 -2 15 -4 0 -4 -33z"/>
<path d="M980 1690 c0 -18 -7 -20 -60 -20 -47 0 -60 -3 -60 -15 0 -12 15 -15 75 -15 l75 0 0 35 c0 24 -5 35 -15 35 -8 0 -15 -9 -15 -20z"/>
<path d="M865 1612 c-3 -3 -5 -11 -5 -19 0 -9 17 -13 61 -13 44 0 59 -3 56 -12 -3 -9 -23 -12 -61 -11 -49 2 -56 0 -56 -18 0 -16 7 -19 53 -19 58 0 97 20 97 49 0 10 -6 23 -12 29 -14 10 -125 22 -133 14z"/>
<path d="M872 1488 c-18 -18 -14 -56 7 -68 27 -14 104 -13 119 2 7 7 12 21 12 33 0 12 -5 26 -12 33 -16 16 -110 16 -126 0z m108 -34 c0 -12 -9 -14 -42 -12 -59 4 -63 28 -4 28 35 0 46 -4 46 -16z"/>
<path d="M865 1370 c-14 -45 37 -66 70 -30 26 29 47 26 39 -5 -3 -14 -2 -25 4 -25 17 0 34 28 30 52 -4 32 -56 37 -83 8 -23 -26 -38 -26 -30 0 4 14 2 20 -9 20 -8 0 -18 -9 -21 -20z"/>
<path d="M867 1233 c-4 -3 -7 -19 -7 -35 l0 -28 75 0 75 0 0 35 c0 24 -5 35 -15 35 -8 0 -15 -9 -15 -20 0 -11 -7 -20 -15 -20 -8 0 -15 7 -15 15 0 8 -7 15 -15 15 -9 0 -15 -9 -15 -21 0 -27 -24 -19 -28 9 -3 22 -13 28 -25 15z"/>
<path d="M860 1125 c0 -10 10 -15 30 -15 39 0 41 -27 3 -32 -17 -2 -28 -9 -28 -18 0 -12 16 -16 73 -18 67 -3 72 -1 72 18 0 16 -6 20 -30 20 -20 0 -30 5 -30 15 0 10 10 15 30 15 20 0 30 5 30 15 0 12 -15 15 -75 15 -60 0 -75 -3 -75 -15z"/>
<path d="M862 988 c3 -38 28 -69 28 -34 0 13 12 16 60 16 51 0 60 3 60 18 0 16 -7 18 -60 14 -50 -4 -60 -2 -60 12 0 9 -7 16 -16 16 -12 0 -14 -9 -12 -42z"/>
<path d="M980 865 c-17 -9 -29 -10 -37 -3 -6 5 -24 8 -39 6 -21 -2 -30 -10 -36 -33 -13 -49 -5 -55 72 -55 56 0 70 3 70 15 0 9 -9 15 -25 15 -14 0 -25 4 -25 9 0 5 11 12 25 15 16 4 25 13 25 26 0 23 2 23 -30 5z m-50 -40 c0 -8 -9 -15 -20 -15 -11 0 -20 7 -20 15 0 8 9 15 20 15 11 0 20 -7 20 -15z"/>
<path d="M877 742 c-22 -24 -21 -35 1 -55 12 -11 36 -17 71 -17 45 0 53 3 63 25 9 21 8 28 -7 45 -24 27 -105 28 -128 2z m108 -27 c0 -11 -59 -19 -82 -11 -8 3 -11 11 -8 16 8 14 90 9 90 -5z"/>
<path d="M870 625 l0 -35 70 0 c56 0 70 3 70 15 0 10 -10 15 -30 15 -16 0 -30 5 -30 10 0 6 -7 10 -15 10 -8 0 -15 -4 -15 -10 0 -5 -7 -10 -15 -10 -8 0 -15 9 -15 20 0 11 -4 20 -10 20 -5 0 -10 -16 -10 -35z"/>
<path d="M1183 1085 c0 -44 2 -61 4 -37 2 23 2 59 0 80 -2 20 -4 1 -4 -43z"/>
<path d="M1184 870 c0 -74 1 -105 3 -67 2 37 2 97 0 135 -2 37 -3 6 -3 -68z"/>
<path d="M1635 1590 c0 -212 1 -298 2 -193 2 106 2 280 0 385 -1 106 -2 20 -2 -192z"/>
<path d="M1783 1590 c0 -41 2 -58 4 -37 2 20 2 54 0 75 -2 20 -4 3 -4 -38z"/>
<path d="M1678 1523 c18 -2 45 -2 60 0 15 2 0 4 -33 4 -33 0 -45 -2 -27 -4z"/>
<path d="M1784 1195 c0 -176 2 -247 3 -157 2 90 2 234 0 320 -1 86 -3 13 -3 -163z"/>
<path d="M1633 1130 c0 -41 2 -58 4 -37 2 20 2 54 0 75 -2 20 -4 3 -4 -38z"/>
<path d="M1688 1193 c18 -2 45 -2 60 0 15 2 0 4 -33 4 -33 0 -45 -2 -27 -4z"/>
<path d="M1293 1593 c-15 -22 -18 -47 -17 -133 3 -194 69 -400 129 -400 8 0 23 12 32 27 15 22 18 46 16 128 -2 148 -41 307 -90 373 -29 39 -47 40 -70 5z m67 -53 c62 -122 91 -431 42 -448 -16 -5 -47 66 -73 165 -36 140 -35 350 1 328 6 -4 19 -24 30 -45z"/>
<path d="M1483 940 c0 -36 2 -50 4 -32 2 17 2 47 0 65 -2 17 -4 3 -4 -33z"/>
<path d="M1483 795 c0 -44 2 -61 4 -37 2 23 2 59 0 80 -2 20 -4 1 -4 -43z"/>
<path d="M1483 600 c0 -47 2 -66 4 -42 2 23 2 61 0 85 -2 23 -4 4 -4 -43z"/>
<path d="M1933 1700 c0 -36 2 -50 4 -32 2 17 2 47 0 65 -2 17 -4 3 -4 -33z"/>
<path d="M154 1244 c-35 -91 -19 -340 23 -375 23 -20 51 18 64 86 14 77 6 248 -14 298 -23 54 -50 50 -73 -9z m56 -41 c14 -68 9 -269 -7 -298 -11 -19 -12 -18 -24 10 -24 58 -15 345 11 345 5 0 14 -26 20 -57z"/>
<path d="M2200 949 c-87 -16 -161 -43 -184 -66 l-24 -24 -16 22 c-18 26 -31 20 -21 -10 8 -27 60 -53 150 -77 100 -27 476 -27 580 -1 91 23 152 53 160 78 10 30 -3 36 -21 10 l-16 -22 -22 20 c-57 54 -193 81 -394 80 -81 -1 -167 -5 -192 -10z m325 -33 c93 -7 182 -29 203 -49 12 -13 10 -16 -19 -26 -132 -42 -514 -42 -621 0 -16 6 -28 15 -28 19 0 20 113 49 225 58 92 8 102 8 240 -2z"/>
<path d="M2278 693 c17 -2 47 -2 65 0 17 2 3 4 -33 4 -36 0 -50 -2 -32 -4z"/>
<path d="M2588 693 c18 -2 45 -2 60 0 15 2 0 4 -33 4 -33 0 -45 -2 -27 -4z"/>
<path d="M2713 693 c20 -2 54 -2 75 0 20 2 3 4 -38 4 -41 0 -58 -2 -37 -4z"/>
<path d="M2233 615 c0 -33 2 -45 4 -27 2 18 2 45 0 60 -2 15 -4 0 -4 -33z"/>
<path d="M2233 455 c0 -33 2 -45 4 -27 2 18 2 45 0 60 -2 15 -4 0 -4 -33z"/>
<path d="M28 2523 c18 -2 45 -2 60 0 15 2 0 4 -33 4 -33 0 -45 -2 -27 -4z"/>
<path d="M187 2523 c18 -2 50 -2 70 0 21 2 7 4 -32 4 -38 0 -55 -2 -38 -4z"/>
<path d="M328 2523 c18 -2 45 -2 60 0 15 2 0 4 -33 4 -33 0 -45 -2 -27 -4z"/>
<path d="M1228 2523 c18 -2 45 -2 60 0 15 2 0 4 -33 4 -33 0 -45 -2 -27 -4z"/>
<path d="M1630 2440 l0 -90 73 2 72 2 -68 3 -68 4 3 84 c2 47 0 85 -4 85 -5 0 -8 -40 -8 -90z"/>
<path d="M2348 2523 c18 -2 45 -2 60 0 15 2 0 4 -33 4 -33 0 -45 -2 -27 -4z"/>
<path d="M2738 2523 c18 -2 45 -2 60 0 15 2 0 4 -33 4 -33 0 -45 -2 -27 -4z"/>
<path d="M33 2353 c20 -2 54 -2 75 0 20 2 3 4 -38 4 -41 0 -58 -2 -37 -4z"/>
<path d="M183 2353 c20 -2 54 -2 75 0 20 2 3 4 -38 4 -41 0 -58 -2 -37 -4z"/>
<path d="M333 2353 c20 -2 54 -2 75 0 20 2 3 4 -38 4 -41 0 -58 -2 -37 -4z"/>
<path d="M2648 2353 c68 -2 176 -2 240 0 64 1 9 3 -123 3 -132 0 -185 -2 -117 -3z"/>
<path d="M1633 2260 c0 -47 2 -66 4 -42 2 23 2 61 0 85 -2 23 -4 4 -4 -43z"/>
<path d="M1783 2275 c0 -38 2 -53 4 -32 2 20 2 52 0 70 -2 17 -4 1 -4 -38z"/>
<path d="M1184 200 c0 -85 2 -120 3 -78 2 43 2 113 0 156 -1 42 -3 7 -3 -78z"/>
<path d="M1333 265 c0 -44 2 -61 4 -37 2 23 2 59 0 80 -2 20 -4 1 -4 -43z"/>
<path d="M1034 135 c0 -66 1 -92 3 -57 2 34 2 88 0 120 -2 31 -3 3 -3 -63z"/>
<path d="M28 193 c18 -2 45 -2 60 0 15 2 0 4 -33 4 -33 0 -45 -2 -27 -4z"/>
<path d="M223 193 c37 -2 97 -2 135 0 37 2 6 3 -68 3 -74 0 -105 -1 -67 -3z"/>
<path d="M882 123 l2 -78 3 72 4 72 67 4 67 3 -72 2 -73 2 2 -77z"/>
<path d="M1078 193 c17 -2 47 -2 65 0 17 2 3 4 -33 4 -36 0 -50 -2 -32 -4z"/>
<path d="M1978 193 c18 -2 45 -2 60 0 15 2 0 4 -33 4 -33 0 -45 -2 -27 -4z"/>
<path d="M2798 193 c34 -2 88 -2 120 0 31 2 3 3 -63 3 -66 0 -92 -1 -57 -3z"/>
<path d="M1333 125 c0 -33 2 -45 4 -27 2 18 2 45 0 60 -2 15 -4 0 -4 -33z"/>
<path d="M1933 125 c0 -33 2 -45 4 -27 2 18 2 45 0 60 -2 15 -4 0 -4 -33z"/>
<path d="M2083 125 c0 -33 2 -45 4 -27 2 18 2 45 0 60 -2 15 -4 0 -4 -33z"/>
</g>
</svg>